<svg width="43" height="43" viewBox="0 0 43 43" fill="none" xmlns="http://www.w3.org/2000/svg">
<path d="M21.5 0C9.675 0 0 9.675 0 21.5C0 33.325 9.675 43 21.5 43C33.325 43 43 33.325 43 21.5C43 9.675 33.325 0 21.5 0ZM21.5 5.375C30.4225 5.375 37.625 12.5775 37.625 21.5C37.625 30.4225 30.4225 37.625 21.5 37.625C12.5775 37.625 5.375 30.4225 5.375 21.5C5.375 12.5775 12.5775 5.375 21.5 5.375ZM18.8125 10.75V22.6825L19.6725 23.3813L22.36 26.0688L24.1875 28.1112L28.0575 24.2413L26.015 22.4137L24.1875 20.5863V10.8575H18.8125V10.75Z" fill="black"/>
</svg>
